<?xml version="1.0" encoding="UTF-8" ?>
<!DOCTYPE svg PUBLIC "-//W3C//DTD SVG 1.1//EN" "http://www.w3.org/Graphics/SVG/1.1/DTD/svg11.dtd">
<svg width="300pt" height="218pt" viewBox="0 0 300 218" version="1.1" xmlns="http://www.w3.org/2000/svg">
<path fill="#ffffff" d=" M 0.00 0.00 L 300.00 0.00 L 300.00 218.00 L 0.00 218.00 L 0.00 0.00 Z" />
<path fill="#464058" d=" M 284.23 14.42 C 286.84 11.61 289.22 8.55 292.73 6.79 C 290.91 9.81 290.28 13.40 288.22 16.30 C 286.58 18.69 285.10 21.18 283.78 23.76 L 283.54 23.68 C 282.80 23.47 281.33 23.03 280.59 22.81 C 281.35 21.62 282.32 20.57 283.67 20.05 C 285.04 18.39 286.03 16.47 286.97 14.54 C 286.29 14.51 284.92 14.45 284.23 14.42 Z" />
<path fill="#1a1720" d=" M 267.41 32.94 C 268.27 24.98 269.65 17.08 270.92 9.17 C 271.60 12.83 273.50 16.27 273.34 20.07 C 273.36 24.18 272.03 28.12 270.97 32.04 C 270.38 34.99 270.58 38.10 269.32 40.90 C 266.59 39.37 267.73 35.56 267.41 32.94 Z" />
<path fill="#181623" d=" M 280.59 22.81 C 281.33 23.03 282.80 23.47 283.54 23.68 C 282.22 26.58 280.70 29.38 279.24 32.21 C 277.87 34.84 276.99 37.85 274.75 39.91 C 275.13 34.75 276.39 29.54 279.85 25.53 C 280.13 24.63 280.38 23.72 280.59 22.81 Z" />
<path fill="#313e49" d=" M 291.27 25.90 C 293.79 24.07 295.12 26.95 295.49 29.07 C 293.35 30.34 291.49 32.00 289.72 33.73 C 287.86 36.08 285.84 38.31 283.99 40.67 C 282.56 42.44 281.85 44.90 279.52 45.76 C 279.36 43.47 280.24 41.36 281.19 39.34 C 281.89 39.30 283.30 39.22 284.01 39.17 C 283.73 38.19 283.46 37.20 283.19 36.22 L 284.66 36.64 C 284.63 36.22 284.56 35.39 284.53 34.97 C 285.43 33.89 285.98 32.60 286.49 31.31 L 286.70 31.30 C 287.45 31.29 288.96 31.25 289.71 31.23 C 290.58 30.41 291.45 29.58 292.33 28.75 C 291.96 27.80 291.61 26.85 291.27 25.90 Z" />
<path fill="#a99b9a" d=" M 290.77 29.35 C 291.00 28.21 291.16 27.06 291.27 25.90 C 291.61 26.85 291.96 27.80 292.33 28.75 C 291.45 29.58 290.58 30.41 289.71 31.23 C 288.96 31.25 287.45 31.29 286.70 31.30 C 287.10 29.19 289.18 29.55 290.77 29.35 Z" />
<path fill="#14121b" d=" M 137.09 34.97 C 137.48 34.61 138.89 34.26 138.36 35.36 C 135.87 38.11 133.61 41.05 132.35 44.59 L 131.25 44.33 C 131.33 44.71 131.48 45.49 131.56 45.88 C 130.79 46.70 130.05 47.54 129.33 48.41 C 127.64 49.28 126.29 50.57 125.33 52.21 C 123.64 53.64 123.59 56.96 120.93 56.88 C 119.54 59.80 117.45 62.28 115.53 64.85 C 115.48 66.82 115.30 68.79 115.17 70.76 C 115.75 70.97 116.90 71.39 117.48 71.60 C 119.00 74.39 116.26 76.03 114.53 77.65 L 114.52 78.54 L 113.63 78.54 C 112.91 79.42 111.94 79.87 110.69 79.90 L 110.72 80.88 L 109.27 80.25 L 109.30 82.00 L 108.99 81.49 C 108.51 80.75 107.54 79.26 107.06 78.52 C 104.78 78.70 106.84 81.59 106.44 82.96 C 106.57 84.46 106.24 85.87 105.46 87.18 C 105.24 86.20 104.82 84.25 104.60 83.27 C 103.97 84.34 103.28 85.38 102.55 86.39 C 101.98 86.21 100.84 85.84 100.28 85.65 C 99.62 86.86 98.97 88.06 98.31 89.25 C 98.75 89.62 99.63 90.36 100.06 90.72 C 99.94 91.60 99.71 93.34 99.59 94.22 C 98.98 92.83 98.53 91.38 98.10 89.93 L 97.37 91.06 C 97.43 91.71 97.55 93.02 97.61 93.68 L 96.35 93.23 C 96.52 94.93 99.01 98.85 95.26 97.51 C 95.35 98.31 95.51 99.91 95.60 100.70 C 95.14 100.63 94.23 100.49 93.78 100.42 C 93.44 102.40 93.38 104.51 92.24 106.24 C 92.34 105.49 92.56 104.01 92.67 103.26 L 91.38 103.49 C 91.41 102.67 91.47 101.01 91.50 100.19 C 91.33 100.21 90.97 100.27 90.80 100.29 C 90.82 101.49 90.83 102.69 90.83 103.90 L 89.86 104.88 C 87.95 106.70 86.57 108.97 85.49 111.35 C 85.07 111.48 84.23 111.75 83.81 111.88 C 83.62 112.66 83.45 113.44 83.28 114.23 C 82.92 118.53 81.13 122.38 78.23 125.56 C 76.06 127.65 76.14 130.95 74.23 133.22 C 72.61 134.19 72.12 137.04 70.38 137.40 C 68.96 137.15 67.52 136.95 66.11 137.37 C 64.55 135.43 63.42 133.19 62.48 130.90 C 62.00 131.71 61.52 132.52 61.05 133.33 C 61.55 133.37 62.54 133.45 63.04 133.50 C 60.90 135.91 60.41 139.53 57.32 141.09 C 56.91 139.15 56.50 137.22 56.17 135.28 C 61.71 119.17 71.87 105.09 80.56 90.50 C 89.20 75.12 101.83 62.46 114.83 50.73 C 122.07 45.23 129.28 39.66 137.09 34.97 Z" />
<path fill="#151821" d=" M 257.18 55.02 C 261.19 53.07 265.65 52.12 270.07 51.67 C 271.32 52.19 272.60 52.60 273.92 52.92 C 272.01 53.42 270.00 53.13 268.09 53.63 C 264.84 54.57 262.50 57.15 259.88 59.12 C 266.64 61.95 274.43 59.99 281.10 57.69 C 280.52 56.50 279.39 55.78 278.38 55.02 C 278.77 54.33 279.54 52.96 279.93 52.27 C 282.75 51.68 286.73 52.57 286.96 56.02 C 286.70 58.92 283.65 60.04 281.30 60.83 C 281.34 62.24 281.42 63.66 281.51 65.07 C 282.04 65.53 283.11 66.46 283.65 66.92 C 282.29 68.38 281.05 69.96 280.09 71.71 C 279.69 71.59 278.89 71.35 278.49 71.23 C 278.43 72.68 278.38 74.12 278.33 75.57 C 277.65 75.57 276.29 75.58 275.61 75.58 C 275.66 76.33 275.77 77.83 275.82 78.58 C 275.46 78.61 274.74 78.69 274.39 78.72 C 274.52 83.60 270.96 87.36 269.83 91.90 C 267.05 101.26 263.22 110.44 257.16 118.18 C 254.08 121.01 250.81 123.99 249.42 128.07 C 247.64 133.44 245.22 138.60 243.59 144.01 C 243.58 146.54 240.94 148.17 241.39 150.73 L 239.14 149.55 C 241.63 152.16 240.44 157.30 237.62 159.17 C 237.56 158.31 237.44 156.58 237.38 155.71 C 237.86 155.44 238.82 154.89 239.30 154.61 C 238.69 154.59 237.45 154.53 236.83 154.50 C 236.58 156.70 236.07 158.90 234.69 160.69 C 234.69 161.30 234.67 162.51 234.67 163.12 C 235.81 162.39 235.61 160.93 235.91 159.78 C 237.24 160.51 237.88 161.68 237.81 163.27 C 237.30 163.44 236.29 163.80 235.78 163.97 C 232.74 169.29 230.68 175.17 229.09 181.07 C 228.17 181.65 227.26 182.24 226.34 182.83 C 227.31 176.38 229.16 170.10 231.00 163.86 C 232.66 159.60 233.04 154.97 235.00 150.82 C 237.15 142.40 240.55 134.35 242.87 125.98 C 243.14 122.97 239.65 121.18 239.60 118.19 C 239.24 112.71 239.04 107.01 241.02 101.79 C 244.51 90.62 247.90 79.42 251.33 68.23 C 252.18 65.54 253.26 62.86 253.31 59.99 C 252.98 57.54 255.56 56.31 257.18 55.02 Z" />
<path fill="#11121b" d=" M 172.28 60.49 C 176.73 58.62 181.48 58.52 186.22 58.64 C 188.02 59.62 190.40 60.61 190.50 63.01 C 191.49 66.67 188.63 69.70 188.56 73.27 C 186.50 73.51 187.50 75.94 187.17 77.29 C 186.76 77.65 185.94 78.39 185.53 78.76 C 185.66 80.52 186.08 82.44 184.92 83.98 C 185.36 86.58 185.88 89.82 183.44 91.62 C 183.37 95.50 183.26 99.74 181.56 103.26 C 180.82 99.73 181.45 96.17 182.00 92.67 C 178.76 93.08 179.05 96.51 178.56 98.97 C 178.23 97.65 177.89 96.34 177.56 95.03 C 175.84 100.63 174.27 106.29 173.36 112.09 C 173.06 114.27 172.30 116.35 171.35 118.33 C 171.13 117.53 170.67 115.94 170.45 115.15 C 172.58 104.02 176.46 93.16 177.22 81.81 C 176.46 83.14 175.71 84.49 174.98 85.85 C 174.07 85.35 173.28 84.54 172.59 83.73 C 172.61 84.48 172.62 85.24 172.65 85.99 C 172.99 86.53 173.68 87.61 174.03 88.15 L 173.99 88.64 C 173.67 88.88 173.04 89.37 172.72 89.61 C 172.39 89.31 171.73 88.72 171.40 88.42 C 170.87 89.53 170.69 90.71 170.87 91.98 C 170.62 94.37 169.99 96.80 170.62 99.20 C 172.29 102.51 170.76 106.05 169.87 109.33 C 169.06 106.54 168.19 103.75 167.78 100.87 C 167.53 98.76 168.88 96.60 167.88 94.57 C 165.44 99.02 165.39 104.21 164.00 109.00 C 162.50 114.17 163.40 119.66 162.07 124.86 C 160.58 130.82 162.00 137.02 160.87 143.03 C 160.21 145.97 160.47 148.97 160.88 151.93 C 162.36 147.71 163.77 143.44 163.62 138.89 C 164.25 138.73 165.49 138.42 166.12 138.26 C 165.47 141.92 164.50 145.79 166.11 149.36 C 169.13 142.85 170.01 135.61 172.86 129.01 C 173.48 127.91 173.73 124.61 175.69 125.93 C 174.61 129.99 173.16 133.93 172.06 137.98 C 171.17 141.68 169.03 145.23 169.70 149.15 C 170.95 153.95 175.44 156.98 176.40 161.92 C 176.29 166.14 171.65 169.09 172.79 173.35 C 172.38 173.60 171.57 174.11 171.17 174.37 C 171.02 175.06 170.72 176.43 170.57 177.12 C 169.03 177.17 167.50 177.24 165.97 177.26 C 163.53 176.44 161.54 174.75 159.63 173.10 C 158.56 174.96 157.64 176.91 157.15 179.01 C 156.44 180.51 156.03 182.12 155.37 183.65 C 153.77 184.06 153.64 181.72 152.78 180.84 C 153.81 179.36 153.56 177.64 153.46 175.96 C 153.94 173.50 155.66 171.43 155.89 168.91 C 156.07 166.81 154.59 165.11 154.02 163.19 C 153.66 160.99 153.74 158.75 153.73 156.53 L 152.46 156.15 L 152.47 155.55 C 153.88 147.76 152.75 139.83 153.75 132.00 C 154.48 127.34 154.51 122.62 154.93 117.94 C 156.49 110.89 157.21 103.68 158.74 96.61 C 161.43 87.75 163.61 78.76 166.21 69.88 C 167.19 66.14 170.77 63.99 172.28 60.49 Z" />
<path fill="#fdfdf9" d=" M 257.84 64.23 C 263.32 62.79 269.18 63.78 274.76 62.56 C 272.99 73.87 268.23 84.39 264.38 95.08 C 261.17 102.05 258.55 109.52 253.56 115.47 C 253.74 113.06 253.16 110.20 254.89 108.21 C 260.25 101.56 262.35 93.05 264.86 85.07 C 267.23 78.69 269.08 72.07 270.06 65.33 C 266.04 64.14 261.71 65.95 257.84 64.23 Z" />
<path fill="#3c3594" d=" M 257.47 64.10 L 257.84 64.23 C 261.71 65.95 266.04 64.14 270.06 65.33 C 269.08 72.07 267.23 78.69 264.86 85.07 C 262.35 93.05 260.25 101.56 254.89 108.21 L 254.31 108.92 C 253.19 108.57 251.73 106.44 250.51 107.69 C 246.69 110.76 247.36 116.41 244.67 120.16 C 243.46 116.42 242.59 112.34 243.70 108.47 C 247.75 93.51 254.15 79.27 257.47 64.10 Z" />
<path fill="#453498" d=" M 249.50 68.57 C 249.96 68.48 250.87 68.32 251.33 68.23 C 247.90 79.42 244.51 90.62 241.02 101.79 C 241.27 98.25 242.28 94.56 240.84 91.13 C 244.32 88.35 243.69 83.74 243.97 79.81 C 245.46 75.92 247.19 72.05 249.50 68.57 Z" />
<path fill="#857d92" d=" M 106.44 82.96 C 106.84 81.59 104.78 78.70 107.06 78.52 C 107.54 79.26 108.51 80.75 108.99 81.49 L 109.85 83.01 C 109.16 82.90 107.76 82.69 107.07 82.58 C 106.89 84.44 106.71 86.33 106.09 88.11 C 105.88 88.62 105.45 89.66 105.24 90.18 C 104.75 90.18 103.78 90.17 103.30 90.17 C 103.22 90.91 103.06 92.37 102.98 93.10 L 103.03 92.44 C 102.94 92.05 102.77 91.27 102.69 90.88 C 102.42 91.17 101.88 91.75 101.61 92.04 C 101.23 91.71 100.45 91.05 100.06 90.72 C 99.63 90.36 98.75 89.62 98.31 89.25 C 98.97 88.06 99.62 86.86 100.28 85.65 C 100.84 85.84 101.98 86.21 102.55 86.39 C 103.28 85.38 103.97 84.34 104.60 83.27 C 104.82 84.25 105.24 86.20 105.46 87.18 C 106.24 85.87 106.57 84.46 106.44 82.96 Z" />
<path fill="#fbfcfb" d=" M 174.98 85.85 C 175.71 84.49 176.46 83.14 177.22 81.81 C 176.46 93.16 172.58 104.02 170.45 115.15 L 169.95 116.30 C 169.22 119.15 168.05 121.83 165.87 123.88 L 165.02 121.91 C 164.88 122.91 164.73 123.90 164.60 124.90 C 165.63 124.36 166.67 123.85 167.72 123.35 C 167.40 125.04 166.54 126.33 165.13 127.21 C 165.54 127.33 166.36 127.57 166.77 127.69 C 164.21 130.86 163.86 134.98 163.62 138.89 C 163.77 143.44 162.36 147.71 160.88 151.93 C 160.47 148.97 160.21 145.97 160.87 143.03 C 162.00 137.02 160.58 130.82 162.07 124.86 C 163.40 119.66 162.50 114.17 164.00 109.00 C 165.39 104.21 165.44 99.02 167.88 94.57 C 168.88 96.60 167.53 98.76 167.78 100.87 C 168.19 103.75 169.06 106.54 169.87 109.33 C 170.76 106.05 172.29 102.51 170.62 99.20 C 174.06 97.05 172.99 92.07 173.99 88.64 L 174.03 88.15 C 173.68 87.61 172.99 86.53 172.65 85.99 C 172.62 85.24 172.61 84.48 172.59 83.73 C 173.28 84.54 174.07 85.35 174.98 85.85 Z" />
<path fill="#3a3940" d=" M 103.52 87.98 C 105.41 86.54 105.50 91.32 103.59 89.63 C 103.57 89.21 103.53 88.39 103.52 87.98 Z" />
<path fill="#9ba3bd" d=" M 171.40 88.42 C 171.73 88.72 172.39 89.31 172.72 89.61 C 172.40 90.65 171.78 91.44 170.87 91.98 C 170.69 90.71 170.87 89.53 171.40 88.42 Z" />
<path fill="#857d92" d=" M 172.72 89.61 C 173.04 89.37 173.67 88.88 173.99 88.64 C 172.99 92.07 174.06 97.05 170.62 99.20 C 169.99 96.80 170.62 94.37 170.87 91.98 C 171.78 91.44 172.40 90.65 172.72 89.61 Z" />
<path fill="#181c24" d=" M 192.29 96.97 C 190.23 94.76 189.97 91.43 192.69 89.69 C 194.48 89.75 196.28 89.73 198.08 89.70 C 199.14 90.79 200.21 91.87 201.33 92.91 C 202.91 96.98 203.34 101.40 204.04 105.67 C 204.09 107.95 204.04 110.23 203.93 112.51 C 202.57 111.76 202.32 110.24 201.81 108.95 C 201.38 108.57 200.52 107.81 200.09 107.44 C 200.13 106.57 200.23 104.83 200.28 103.96 C 199.96 105.70 199.64 107.45 199.32 109.19 C 198.72 108.67 197.51 107.62 196.91 107.10 C 194.62 104.13 193.26 100.56 192.29 96.97 Z" />
<path fill="#090a15" d=" M 101.61 92.04 C 101.88 91.75 102.42 91.17 102.69 90.88 C 102.77 91.27 102.94 92.05 103.03 92.44 C 102.68 92.34 101.97 92.14 101.61 92.04 Z" />
<path fill="#151a23" d=" M 178.56 98.97 C 179.05 96.51 178.76 93.08 182.00 92.67 C 181.45 96.17 180.82 99.73 181.56 103.26 C 179.90 110.89 178.33 118.57 175.95 126.03 L 175.69 125.93 C 173.73 124.61 173.48 127.91 172.86 129.01 C 170.01 135.61 169.13 142.85 166.11 149.36 C 164.50 145.79 165.47 141.92 166.12 138.26 C 165.49 138.42 164.25 138.73 163.62 138.89 C 163.86 134.98 164.21 130.86 166.77 127.69 C 166.36 127.57 165.54 127.33 165.13 127.21 C 166.54 126.33 167.40 125.04 167.72 123.35 C 166.67 123.85 165.63 124.36 164.60 124.90 C 164.73 123.90 164.88 122.91 165.02 121.91 L 165.87 123.88 C 168.05 121.83 169.22 119.15 169.95 116.30 L 170.45 115.15 C 170.67 115.94 171.13 117.53 171.35 118.33 C 172.30 116.35 173.06 114.27 173.36 112.09 C 174.27 106.29 175.84 100.63 177.56 95.03 C 177.89 96.34 178.23 97.65 178.56 98.97 Z" />
<path fill="#818898" d=" M 199.32 109.19 C 199.64 107.45 199.96 105.70 200.28 103.96 C 200.23 104.83 200.13 106.57 200.09 107.44 C 200.52 107.81 201.38 108.57 201.81 108.95 C 202.32 110.24 202.57 111.76 203.93 112.51 C 204.04 110.23 204.09 107.95 204.04 105.67 C 205.11 109.05 204.45 112.63 204.57 116.10 C 203.94 114.52 203.39 112.74 201.57 112.17 C 201.52 111.42 201.43 109.92 201.39 109.18 C 200.38 109.68 199.38 110.19 198.38 110.71 C 197.88 109.50 197.39 108.30 196.91 107.10 C 197.51 107.62 198.72 108.67 199.32 109.19 Z" />
<path fill="#6b6b82" d=" M 85.49 111.35 C 86.57 108.97 87.95 106.70 89.86 104.88 C 89.45 106.83 89.09 108.78 88.83 110.76 C 88.28 110.53 87.20 110.07 86.66 109.85 C 85.95 112.67 85.90 115.86 83.79 118.11 C 83.67 117.14 83.41 115.20 83.28 114.23 C 83.45 113.44 83.62 112.66 83.81 111.88 C 84.23 111.75 85.07 111.48 85.49 111.35 Z" />
<path fill="#1d2028" d=" M 140.81 105.53 C 143.63 105.43 146.95 105.00 148.69 107.81 C 148.18 108.32 147.16 109.34 146.65 109.85 C 146.42 109.66 145.98 109.27 145.76 109.07 C 144.30 110.82 143.09 112.81 141.32 114.27 C 139.18 115.56 136.55 115.35 134.16 115.59 C 133.92 115.60 133.44 115.62 133.20 115.63 C 133.37 114.48 133.04 113.11 133.96 112.20 C 136.04 109.80 137.88 107.00 140.81 105.53 Z" />
<path fill="#b7b9b6" d=" M 166.14 108.47 C 169.45 108.43 164.77 111.56 166.14 108.47 Z" />
<path fill="#0d0412" d=" M 141.32 114.27 C 143.09 112.81 144.30 110.82 145.76 109.07 C 145.98 109.27 146.42 109.66 146.65 109.85 C 145.19 112.58 143.87 116.00 140.48 116.71 C 138.31 117.83 135.87 117.24 134.16 115.59 C 136.55 115.35 139.18 115.56 141.32 114.27 Z" />
<path fill="#181623" d=" M 168.39 112.62 C 169.71 112.83 169.57 115.25 168.96 116.16 C 167.53 116.01 167.66 113.51 168.39 112.62 Z" />
<path fill="#151416" d=" M 205.15 128.87 C 206.87 122.94 207.58 115.10 213.99 112.31 L 214.73 112.91 C 214.59 116.36 215.56 119.75 215.24 123.20 C 214.55 127.31 214.27 131.48 213.44 135.58 C 212.96 140.05 213.48 144.58 213.12 149.07 C 213.75 149.94 214.39 150.80 215.08 151.64 L 215.68 152.39 C 217.09 153.30 218.79 152.91 219.79 151.44 L 219.85 153.98 C 219.95 152.38 220.07 150.79 220.22 149.20 C 221.38 148.98 222.55 148.79 223.73 148.61 C 223.81 150.92 226.07 154.53 223.39 155.93 C 223.69 156.74 224.28 158.36 224.57 159.17 C 222.34 160.49 223.10 164.40 219.86 164.90 C 219.22 167.54 215.91 166.21 213.96 166.66 C 210.45 164.13 208.69 160.15 206.90 156.36 C 204.82 150.26 204.62 143.73 204.77 137.35 C 204.02 137.50 202.50 137.82 201.74 137.98 C 202.91 134.96 204.22 131.98 205.15 128.87 Z" />
<path fill="#857d92" d=" M 164.69 120.24 C 165.08 118.44 165.08 116.35 166.45 114.95 C 166.18 116.73 166.97 119.48 164.69 120.24 Z" />
<path fill="#090a15" d=" M 19.76 126.54 C 22.81 123.13 24.85 118.04 29.92 117.30 C 32.57 117.86 35.82 118.66 36.71 121.62 C 39.73 129.09 43.70 136.13 47.24 143.36 C 48.23 146.58 49.18 149.82 50.50 152.92 C 51.46 149.24 52.44 145.57 53.77 142.00 C 54.53 139.75 55.30 137.49 56.17 135.28 C 56.50 137.22 56.91 139.15 57.32 141.09 C 60.41 139.53 60.90 135.91 63.04 133.50 C 62.54 133.45 61.55 133.37 61.05 133.33 C 61.52 132.52 62.00 131.71 62.48 130.90 C 63.42 133.19 64.55 135.43 66.11 137.37 C 67.52 136.95 68.96 137.15 70.38 137.40 C 71.11 141.16 67.42 144.30 66.99 148.10 C 65.25 153.34 63.32 158.57 62.60 164.07 C 61.36 170.04 59.85 176.01 60.14 182.17 C 59.66 182.32 58.70 182.63 58.22 182.78 C 57.66 180.12 57.08 177.46 56.43 174.82 C 54.58 180.95 58.76 188.95 53.03 193.64 C 52.35 193.17 51.67 192.71 50.99 192.25 C 50.39 192.72 49.79 193.18 49.20 193.65 C 48.53 192.09 47.87 190.53 47.20 188.97 C 46.64 189.32 46.08 189.67 45.52 190.03 C 45.31 191.44 45.07 192.86 44.68 194.24 L 44.40 194.53 C 43.31 191.96 42.20 189.40 41.07 186.85 C 38.83 180.98 38.63 174.21 34.65 169.09 C 34.46 170.56 34.29 172.03 34.13 173.51 C 33.73 173.32 32.92 172.94 32.51 172.76 C 29.19 166.66 28.92 159.71 27.88 153.01 C 27.40 150.33 27.84 147.31 26.14 144.99 C 23.32 147.96 21.10 151.54 17.65 153.86 C 14.65 156.04 11.70 159.89 7.49 158.54 C 4.06 155.91 4.72 151.46 5.69 147.82 C 9.27 140.07 14.07 132.90 19.76 126.54 Z" />
<path fill="#11131b" d=" M 190.93 132.83 C 193.66 127.84 197.12 123.29 201.10 119.22 C 202.64 119.66 204.02 119.42 205.26 118.52 C 205.67 118.94 206.51 119.77 206.92 120.19 C 206.04 122.30 205.50 125.87 203.33 126.71 L 202.79 126.59 C 203.04 129.52 199.87 130.44 198.71 132.67 C 196.87 135.98 194.13 139.22 194.19 143.20 C 195.12 144.45 196.61 145.08 197.93 145.83 C 198.57 144.70 199.24 143.57 199.93 142.47 L 200.33 141.89 C 200.73 142.33 201.53 143.19 201.93 143.63 C 200.90 145.16 199.87 146.69 198.81 148.19 C 198.70 149.88 198.57 151.57 198.52 153.26 C 196.84 154.44 196.53 156.40 196.22 158.26 C 195.43 159.88 194.62 161.50 193.66 163.03 C 193.59 163.63 193.43 164.82 193.35 165.42 C 191.13 168.44 189.97 172.05 188.04 175.25 C 184.88 175.96 182.92 172.93 180.95 171.02 C 178.64 169.01 179.37 165.62 179.37 162.92 C 181.11 152.24 184.92 141.87 190.93 132.83 Z" />
<path fill="#fde11b" d=" M 215.24 123.20 C 215.75 121.82 216.25 120.44 216.92 119.13 C 218.95 120.61 221.32 121.90 222.62 124.16 C 223.61 125.64 224.40 127.56 226.43 127.81 C 226.30 129.79 226.13 131.89 227.25 133.65 C 228.89 136.27 227.81 139.39 227.62 142.24 C 226.38 143.68 225.26 145.49 223.22 145.82 C 223.35 146.34 223.59 147.40 223.71 147.93 C 222.62 148.06 221.53 148.20 220.44 148.34 C 219.86 149.95 219.27 152.08 217.36 152.50 C 216.79 152.29 215.65 151.86 215.08 151.64 C 214.39 150.80 213.75 149.94 213.12 149.07 C 213.48 144.58 212.96 140.05 213.44 135.58 C 214.27 131.48 214.55 127.31 215.24 123.20 Z" />
<path fill="#0a0e18" d=" M 135.65 125.73 C 138.13 125.43 141.39 124.46 143.04 127.02 C 144.87 129.00 142.85 131.62 142.51 133.82 C 141.14 140.79 140.46 149.52 146.38 154.68 C 147.80 156.80 150.41 155.52 152.47 155.55 C 149.93 159.90 145.62 162.88 143.00 167.12 C 140.42 167.69 137.39 168.72 135.03 167.01 C 131.78 165.28 129.86 162.02 127.95 159.02 C 125.49 151.58 127.33 143.69 129.64 136.46 C 130.67 137.46 131.01 139.90 132.84 139.63 C 134.12 139.30 134.97 138.12 136.03 137.38 C 137.14 140.92 138.03 144.72 136.29 148.23 C 137.61 149.57 138.95 150.89 140.33 152.17 C 140.54 147.64 138.83 143.21 139.55 138.68 C 139.78 135.09 141.89 131.85 141.93 128.27 C 140.79 126.86 138.83 127.40 137.26 127.21 C 136.86 126.84 136.05 126.10 135.65 125.73 Z" />
<path fill="#141a22" d=" M 129.64 136.46 C 130.82 132.50 132.13 128.27 135.65 125.73 C 136.05 126.10 136.86 126.84 137.26 127.21 C 138.83 127.40 140.79 126.86 141.93 128.27 C 141.89 131.85 139.78 135.09 139.55 138.68 C 138.83 143.21 140.54 147.64 140.33 152.17 C 138.95 150.89 137.61 149.57 136.29 148.23 C 138.03 144.72 137.14 140.92 136.03 137.38 C 134.97 138.12 134.12 139.30 132.84 139.63 C 131.01 139.90 130.67 137.46 129.64 136.46 Z" />
<path fill="#fce321" d=" M 203.33 126.71 C 204.56 126.91 205.17 127.63 205.15 128.87 C 204.22 131.98 202.91 134.96 201.74 137.98 L 201.63 138.01 C 201.25 139.15 200.83 140.27 200.45 141.42 L 200.33 141.89 L 199.93 142.47 C 199.24 143.57 198.57 144.70 197.93 145.83 C 196.61 145.08 195.12 144.45 194.19 143.20 C 194.13 139.22 196.87 135.98 198.71 132.67 C 199.87 130.44 203.04 129.52 202.79 126.59 L 203.33 126.71 Z" />
<path fill="#11101a" d=" M 107.85 130.47 C 110.31 130.34 112.78 130.35 115.23 130.55 C 119.85 133.23 122.42 138.48 123.63 143.51 C 124.96 148.25 124.15 153.19 124.16 158.02 C 123.32 159.31 123.47 160.81 123.87 162.22 C 122.38 163.06 122.18 164.48 122.54 166.04 C 121.59 167.67 120.60 169.28 119.30 170.66 C 119.41 171.23 119.63 172.37 119.74 172.94 C 118.74 174.91 117.39 176.64 116.07 178.40 C 113.27 179.25 111.78 181.83 110.19 184.07 C 108.89 184.28 107.89 185.05 107.03 185.99 C 101.27 188.24 94.71 188.12 88.98 185.84 C 86.73 184.04 84.72 181.95 82.22 180.47 C 81.08 180.49 79.94 180.50 78.80 180.50 C 78.24 178.90 77.64 177.32 76.99 175.76 C 77.27 173.81 77.44 171.85 77.62 169.89 C 80.77 172.81 84.85 174.31 88.47 176.52 C 89.48 175.79 90.49 175.08 91.50 174.35 C 91.68 175.69 91.88 177.03 92.12 178.37 C 93.04 177.14 93.66 175.74 94.09 174.28 C 98.33 176.30 103.35 175.21 107.48 173.42 C 108.20 172.10 108.67 170.66 109.37 169.33 C 110.80 167.79 112.93 166.93 114.03 165.10 C 114.66 163.13 114.63 161.01 114.65 158.97 C 115.02 156.41 112.63 154.85 111.34 153.00 C 111.76 152.31 112.18 151.62 112.60 150.94 C 109.15 148.64 106.91 144.91 103.11 143.09 C 103.53 142.67 103.96 142.25 104.38 141.84 C 104.57 139.24 104.63 136.65 104.44 134.06 C 104.80 133.76 105.51 133.16 105.87 132.86 C 106.51 132.04 107.17 131.24 107.85 130.47 Z" />
<path fill="#14161f" d=" M 81.46 144.70 C 83.87 140.53 88.01 137.21 92.85 136.47 C 95.04 136.21 96.65 138.23 96.25 140.32 C 96.08 143.21 94.98 145.89 93.41 148.29 C 93.32 147.79 93.12 146.80 93.02 146.30 C 92.72 146.53 92.11 146.99 91.80 147.22 C 90.39 146.61 89.00 145.97 87.62 145.29 C 86.94 146.26 86.25 147.23 85.55 148.20 C 82.73 148.96 80.26 150.57 77.87 152.22 C 78.89 149.63 80.06 147.10 81.46 144.70 Z" />
<path fill="#fce228" d=" M 201.63 138.01 L 201.74 137.98 C 202.50 137.82 204.02 137.50 204.77 137.35 C 204.62 143.73 204.82 150.26 206.90 156.36 C 204.52 156.42 202.15 156.52 199.78 156.64 C 199.31 155.53 198.89 154.41 198.52 153.26 C 198.57 151.57 198.70 149.88 198.81 148.19 C 199.87 146.69 200.90 145.16 201.93 143.63 C 201.53 143.19 200.73 142.33 200.33 141.89 L 200.45 141.42 C 200.83 140.27 201.25 139.15 201.63 138.01 Z" />
<path fill="#ec1b3a" d=" M 96.25 140.32 C 98.97 140.77 101.67 141.31 104.38 141.84 C 103.96 142.25 103.53 142.67 103.11 143.09 C 106.91 144.91 109.15 148.64 112.60 150.94 C 112.18 151.62 111.76 152.31 111.34 153.00 C 112.63 154.85 115.02 156.41 114.65 158.97 C 114.63 161.01 114.66 163.13 114.03 165.10 C 112.93 166.93 110.80 167.79 109.37 169.33 C 108.67 170.66 108.20 172.10 107.48 173.42 C 103.35 175.21 98.33 176.30 94.09 174.28 C 87.29 167.45 88.36 155.84 93.41 148.29 C 94.98 145.89 96.08 143.21 96.25 140.32 Z" />
<path fill="#ef143c" d=" M 77.96 142.54 C 78.22 142.51 78.74 142.44 79.00 142.41 C 79.62 142.98 80.85 144.13 81.46 144.70 C 80.06 147.10 78.89 149.63 77.87 152.22 C 75.97 156.96 75.60 162.10 74.92 167.12 C 71.45 165.25 68.31 162.02 67.78 157.98 C 67.09 156.01 68.80 155.06 70.25 154.27 C 70.40 155.02 70.69 156.52 70.84 157.27 C 73.50 158.16 74.88 156.43 73.78 153.91 C 75.22 150.14 76.33 146.24 77.96 142.54 Z" />
<path fill="#0d0412" d=" M 87.62 145.29 C 89.00 145.97 90.39 146.61 91.80 147.22 C 92.11 146.99 92.72 146.53 93.02 146.30 C 93.12 146.80 93.32 147.79 93.41 148.29 C 88.36 155.84 87.29 167.45 94.09 174.28 C 93.66 175.74 93.04 177.14 92.12 178.37 C 91.88 177.03 91.68 175.69 91.50 174.35 C 90.49 175.08 89.48 175.79 88.47 176.52 C 84.85 174.31 80.77 172.81 77.62 169.89 C 77.44 171.85 77.27 173.81 76.99 175.76 C 75.98 172.99 75.02 170.09 74.92 167.12 C 75.60 162.10 75.97 156.96 77.87 152.22 C 80.26 150.57 82.73 148.96 85.55 148.20 C 86.25 147.23 86.94 146.26 87.62 145.29 Z" />
<path fill="#464058" d=" M 172.79 173.35 L 173.29 173.03 C 173.46 174.16 173.63 175.29 173.80 176.42 C 172.95 177.06 172.11 177.70 171.27 178.35 C 169.49 178.00 167.71 177.69 165.97 177.26 C 167.50 177.24 169.03 177.17 170.57 177.12 C 170.72 176.43 171.02 175.06 171.17 174.37 C 171.57 174.11 172.38 173.60 172.79 173.35 Z" />
<path fill="#171c23" d=" M 53.03 193.64 C 58.76 188.95 54.58 180.95 56.43 174.82 C 57.08 177.46 57.66 180.12 58.22 182.78 C 58.70 182.63 59.66 182.32 60.14 182.17 C 60.13 182.95 60.10 184.52 60.09 185.30 L 59.74 185.06 C 59.28 184.75 58.36 184.12 57.90 183.81 C 57.40 189.55 57.67 195.32 57.03 201.04 C 56.77 204.63 55.84 208.27 56.73 211.85 C 56.00 214.70 51.73 217.55 49.89 214.04 C 48.30 209.83 48.79 205.16 48.44 200.74 C 47.17 198.81 45.71 197.01 44.54 195.02 L 44.68 194.24 C 45.07 192.86 45.31 191.44 45.52 190.03 C 46.08 189.67 46.64 189.32 47.20 188.97 C 47.87 190.53 48.53 192.09 49.20 193.65 C 49.79 193.18 50.39 192.72 50.99 192.25 C 51.67 192.71 52.35 193.17 53.03 193.64 Z" />
<path fill="#090a15" d=" M 57.90 183.81 C 58.36 184.12 59.28 184.75 59.74 185.06 C 59.49 194.03 59.96 203.31 56.73 211.85 C 55.84 208.27 56.77 204.63 57.03 201.04 C 57.67 195.32 57.40 189.55 57.90 183.81 Z" />
<path fill="#1c1f28" d=" M 224.98 185.96 C 228.07 185.09 231.80 187.40 232.31 190.53 C 232.46 195.38 227.53 197.59 225.18 201.17 C 223.94 202.24 222.48 202.92 220.88 202.25 C 219.89 198.80 220.09 194.98 218.29 191.80 C 220.13 189.45 222.44 187.51 224.98 185.96 Z" />
</svg>
